# xmcd
#
# Track frame offsets: 
#        150
#        19809
#        38185
#        57326
#        74377
#        94505
#        110885
#        130119
#        145105
#        161427
#        180051
#        195127
#        209600
#        227509
#        242457
#        257425
#        275774
#        294787
#        312345
#        329797
#
# Disc length: 4613 seconds
#
# Revision: 0
# Processed by: cddbd v1.5.2PL0 Copyright (c) Steve Scherf et al.
# Submitted via: ExactAudioCopy v0.99pb3
#
DISCID=17120314
DTITLE=Various Artist - ERG Nu Urban Traxx #121
DYEAR=2008
DGENRE=Blues
TTITLE0=Mariah Carey - Bye Bye
TTITLE1=R Kelly - Hair Braider
TTITLE2=Janet - Can't B Good
TTITLE3=Wiz Khalifa - Say Yeah
TTITLE4=Ace Ft T Pain and Rick Ross - Cash Flow
TTITLE5=Busta Rhymes - Don't Touch Me (Throw Da Water On Em')
TTITLE6=Three 6 Mafia - Lolli Lolli (Pop Dat Body)
TTITLE7=Big Boi Ft Raekwon and Andre 3000 - Royal Flush
TTITLE8=Noel Gourdin - The River
TTITLE9=Ray Lavender - Stay
TTITLE10=Lil Shine - Check Out My Lean
TTITLE11=Madonna Ft Justin Timberlake - 4 Minutes To Save The World
TTITLE12=Bun B Ft Sean Kingston - That's Gangsta
TTITLE13=Wyclef Jean Ft Lupe Fiasco - Fast Car Remix
TTITLE14=Karinna Pasian - 16 @ War
TTITLE15=Sheek Louch Ft Jim Jones Hell Rell and Jadakiss - Dipset D Bloc
TTITLE15=k
TTITLE16=Casely Ft FloRida - Emotional (Uptempo Mix)
TTITLE17=Kardinal Official Ft Akon - Dangerous
TTITLE18=VIC Ft Soulja Boy - Get Silly
TTITLE19=Trey Songz - Last Time
EXTD=
EXTT0=
EXTT1=
EXTT2=
EXTT3=
EXTT4=
EXTT5=
EXTT6=
EXTT7=
EXTT8=
EXTT9=
EXTT10=
EXTT11=
EXTT12=
EXTT13=
EXTT14=
EXTT15=
EXTT16=
EXTT17=
EXTT18=
EXTT19=
PLAYORDER=
